<svg width="1440" height="917" viewBox="0 0 1440 917" fill="none" xmlns="http://www.w3.org/2000/svg">
    <!-- Light wave at the back -->
    <path d="M-130 299.574C-124.484 292.885 -124.78 292.694 -116.431 285.938C-94.1106 267.877 -69.4833 251.322 -44.6209 235.876C19.9643 195.752 91.6502 167.132 170.855 154.516C265.968 139.365 360.814 150.663 453.803 169.817C567.524 193.241 678.507 224.879 794.408 240.494C872.813 251.058 951.47 253.764 1029.1 237.253C1105.35 221.035 1175.62 189.458 1250.57 169.783C1319.5 151.688 1393.8 137.515 1466.47 140.325C1512.28 142.096 1555.7 154.257 1598.75 166.479" stroke="#9CCECF" stroke-width="100" stroke-linecap="round"/>

    <!-- Mid wave, adjusted to be 60 pixels lower than the light wave -->
    <path d="M-97 399.574C-91.484 392.885 -91.7802 392.694 -83.4306 385.938C-61.1106 367.877 -36.4833 351.322 -11.6209 335.876C52.9643 295.752 124.65 267.132 203.855 254.516C298.968 239.365 393.814 250.663 486.803 269.817C600.524 293.241 711.507 324.879 827.408 340.494C905.813 351.058 984.47 353.764 1062.1 337.253C1138.35 321.035 1208.62 289.458 1283.57 269.783C1352.5 251.688 1426.8 237.515 1499.47 240.325C1545.28 242.096 1588.7 254.257 1631.75 266.479" stroke="#9CD1E0" stroke-width="150" stroke-linecap="round"/>

    <!-- Dark wave, remains 100 pixels lower than the adjusted mid wave -->
    <path d="M-102 519.574C-96.484 512.885 -96.7802 512.694 -88.4306 505.938C-66.1106 487.877 -41.4833 471.322 -16.6209 455.876C47.9643 415.752 119.65 387.132 198.855 374.516C293.968 359.365 388.814 370.663 481.803 389.817C595.524 413.241 706.507 444.879 822.408 460.494C900.813 471.058 979.47 473.764 1057.1 457.253C1133.35 441.035 1203.62 409.458 1278.57 389.783C1347.5 371.688 1421.8 357.515 1494.47 360.325C1540.28 362.096 1583.7 374.257 1626.75 386.479" stroke="#91C1DC" stroke-width="200" stroke-linecap="round"/>
</svg>
